<svg xmlns="http://www.w3.org/2000/svg" xmlns:xlink="http://www.w3.org/1999/xlink" version="1.1" x="0px" y="0px" viewBox="0 0 64 80" style="enable-background:new 0 0 64 64;" xml:space="preserve"><g><path d="M20.707,30.292c-0.391-0.391-1.023-0.391-1.414,0l-6.879,6.879c-1.559,1.56-1.559,4.097,0,5.656l2.258,2.258L0.879,58.878   C0.312,59.445,0,60.198,0,60.999s0.312,1.555,0.879,2.121c0.566,0.567,1.32,0.879,2.121,0.879c0.801,0,1.555-0.312,2.121-0.879   l13.793-13.793l2.258,2.258c0.753,0.753,1.757,1.168,2.828,1.168c1.071,0,2.075-0.415,2.828-1.168l6.879-6.879   c0.391-0.391,0.391-1.023,0-1.414L20.707,30.292z M3.707,61.706c-0.379,0.378-1.035,0.378-1.414,0C2.103,61.517,2,61.266,2,60.999   c0-0.267,0.103-0.518,0.293-0.707l13.793-13.793l1.414,1.414L3.707,61.706z M25.414,50.171c-0.75,0.751-2.078,0.751-2.828,0   l-8.758-8.758c-0.779-0.78-0.779-2.048,0-2.828L20,32.413l11.586,11.586L25.414,50.171z"/><path d="M42.707,43.292c-0.391-0.391-1.023-0.391-1.414,0c-0.391,0.391-0.391,1.023,0,1.414l2,2   c0.195,0.195,0.451,0.293,0.707,0.293c0.256,0,0.512-0.098,0.707-0.293c0.391-0.391,0.391-1.023,0-1.414L42.707,43.292z"/><path d="M37,43.999c-0.553,0-1,0.448-1,1v3c0,0.552,0.447,1,1,1c0.553,0,1-0.448,1-1v-3C38,44.447,37.553,43.999,37,43.999z"/><path d="M46,37.999h-3c-0.553,0-1,0.448-1,1s0.447,1,1,1h3c0.553,0,1-0.448,1-1S46.553,37.999,46,37.999z"/><path d="M19.293,22.706c0.195,0.195,0.451,0.293,0.707,0.293c0.256,0,0.512-0.098,0.707-0.293c0.391-0.391,0.391-1.023,0-1.414   l-2-2c-0.391-0.391-1.023-0.391-1.414,0c-0.391,0.391-0.391,1.023,0,1.414L19.293,22.706z"/><path d="M25,21.999c0.553,0,1-0.448,1-1v-3c0-0.552-0.447-1-1-1c-0.553,0-1,0.448-1,1v3C24,21.551,24.447,21.999,25,21.999z"/><path d="M16,27.999h3c0.553,0,1-0.448,1-1c0-0.552-0.447-1-1-1h-3c-0.553,0-1,0.448-1,1C15,27.551,15.447,27.999,16,27.999z"/><path d="M64,2.999c0-0.801-0.313-1.555-0.879-2.121c-1.17-1.17-3.072-1.17-4.242,0L43.086,16.671l-2.258-2.258   c-0.753-0.753-1.757-1.168-2.828-1.168c-1.071,0-2.075,0.415-2.828,1.168l-6.879,6.879c-0.391,0.391-0.391,1.023,0,1.414   l1.379,1.379l-2.793,2.792C26.312,27.445,26,28.198,26,28.999s0.312,1.555,0.879,2.121c0.566,0.567,1.32,0.879,2.121,0.879   c0.801,0,1.555-0.312,2.121-0.879l2.793-2.793l1.758,1.758l-2.793,2.792C32.312,33.445,32,34.198,32,34.999   s0.312,1.555,0.879,2.121c0.566,0.567,1.32,0.879,2.121,0.879c0.801,0,1.555-0.312,2.121-0.879l2.793-2.793l1.379,1.379   c0.195,0.195,0.451,0.293,0.707,0.293c0.256,0,0.512-0.098,0.707-0.293l6.879-6.879c1.559-1.559,1.559-4.097,0-5.656l-2.258-2.258   L63.121,5.121C63.687,4.554,64,3.801,64,2.999z M29.707,29.706c-0.379,0.378-1.035,0.378-1.414,0   C28.103,29.517,28,29.266,28,28.999c0-0.267,0.103-0.518,0.293-0.707l2.793-2.793l1.414,1.414L29.707,29.706z M35.707,35.706   c-0.379,0.378-1.035,0.378-1.414,0C34.103,35.517,34,35.266,34,34.999c0-0.267,0.103-0.518,0.293-0.707l2.793-2.793l1.414,1.414   L35.707,35.706z M48.172,27.413L42,33.585L30.414,21.999l6.172-6.172c0.75-0.751,2.078-0.751,2.828,0l8.758,8.758   C48.951,25.365,48.951,26.634,48.172,27.413z M61.707,3.706L45.914,19.499L44.5,18.085L60.293,2.292c0.391-0.39,1.023-0.39,1.414,0   C61.896,2.481,62,2.732,62,2.999S61.896,3.517,61.707,3.706z"/><path d="M20.29,43.709c0.189,0.18,0.45,0.29,0.71,0.29c0.26,0,0.519-0.11,0.71-0.29c0.18-0.19,0.29-0.45,0.29-0.71   c0-0.26-0.11-0.52-0.29-0.71c-0.38-0.37-1.05-0.37-1.42,0c-0.181,0.19-0.29,0.45-0.29,0.71C20,43.259,20.109,43.519,20.29,43.709z"/><path d="M40.79,21.789c-0.181,0.19-0.29,0.45-0.29,0.71c0,0.26,0.109,0.52,0.29,0.71c0.189,0.18,0.439,0.29,0.71,0.29   c0.269,0,0.519-0.11,0.71-0.29c0.18-0.19,0.29-0.45,0.29-0.71c0-0.26-0.11-0.52-0.29-0.71C41.84,21.419,41.16,21.419,40.79,21.789z   "/></g></svg>